<svg width="20" height="19" viewBox="0 0 20 19" fill="none" xmlns="http://www.w3.org/2000/svg">
<path d="M11.9974 12.991H8.99638V11.9907C8.99061 11.7658 9.06079 11.5456 9.19558 11.3655C9.33037 11.1855 9.52191 11.0561 9.73927 10.9983C9.95663 10.9405 10.1871 10.9576 10.3936 11.0469C10.6 11.1362 10.7703 11.2925 10.877 11.4905C11.014 11.7169 11.2351 11.8799 11.492 11.9436C11.7488 12.0074 12.0205 11.9667 12.2474 11.8306C12.4658 11.694 12.6231 11.4783 12.6864 11.2286C12.7498 10.9789 12.7144 10.7144 12.5876 10.4902C12.4587 10.2755 12.3042 10.0773 12.1274 9.89997C11.8503 9.6146 11.5192 9.38717 11.1535 9.23089C10.7877 9.07462 10.3945 8.99262 9.99671 8.98967C9.2008 8.98967 8.43748 9.30584 7.87469 9.86864C7.31189 10.4314 6.99572 11.1947 6.99572 11.9907V13.171C6.33413 13.4111 5.77796 13.8761 5.42443 14.4846C5.0709 15.0932 4.94251 15.8066 5.06169 16.5003C5.18087 17.1939 5.54004 17.8236 6.07643 18.2792C6.61281 18.7349 7.29228 18.9875 7.99605 18.993H11.9974C12.7933 18.993 13.5566 18.6768 14.1194 18.114C14.6822 17.5512 14.9984 16.7879 14.9984 15.992C14.9984 15.1961 14.6822 14.4327 14.1194 13.87C13.5566 13.3072 12.7933 12.991 11.9974 12.991ZM11.9974 16.9923H7.99605C7.73075 16.9923 7.47631 16.8869 7.28871 16.6993C7.10111 16.5117 6.99572 16.2573 6.99572 15.992C6.99572 15.7267 7.10111 15.4722 7.28871 15.2846C7.47631 15.097 7.73075 14.9916 7.99605 14.9916H11.9974C12.2627 14.9916 12.5171 15.097 12.7047 15.2846C12.8923 15.4722 12.9977 15.7267 12.9977 15.992C12.9977 16.2573 12.8923 16.5117 12.7047 16.6993C12.5171 16.8869 12.2627 16.9923 11.9974 16.9923ZM16.4188 4.2081C15.8076 2.80364 14.7528 1.63833 13.4159 0.890731C12.079 0.143135 10.5339 -0.145504 9.01735 0.0690434C7.50076 0.283591 6.09635 0.98949 5.01933 2.07857C3.9423 3.16765 3.25208 4.57983 3.05442 6.09872C2.21636 6.30284 1.4667 6.77231 0.917169 7.43715C0.367635 8.102 0.0476541 8.92663 0.00491648 9.78813C-0.0378211 10.6496 0.198973 11.5019 0.680007 12.2178C1.16104 12.9338 1.86056 13.4752 2.6743 13.7612C2.77805 13.7932 2.88585 13.81 2.9944 13.8113C3.25971 13.8537 3.53101 13.789 3.74862 13.6314C3.96624 13.4739 4.11234 13.2363 4.15479 12.971C4.19723 12.7057 4.13255 12.4344 3.97497 12.2168C3.81739 11.9991 3.57981 11.853 3.31451 11.8106C2.9373 11.6744 2.60971 11.428 2.37425 11.1034C2.1388 10.7788 2.00634 10.3908 1.99408 9.99C1.99408 9.45939 2.20486 8.95052 2.58005 8.57532C2.95525 8.20012 3.46413 7.98934 3.99473 7.98934C4.26004 7.98934 4.51447 7.88395 4.70207 7.69635C4.88967 7.50875 4.99506 7.25431 4.99506 6.98901C4.99762 5.8059 5.41949 4.662 6.18572 3.76053C6.95196 2.85907 8.01295 2.25841 9.18019 2.06526C10.3474 1.87212 11.5453 2.09901 12.5611 2.70561C13.5769 3.31221 14.3447 4.25925 14.7283 5.37848C14.7854 5.55038 14.8882 5.70352 15.0257 5.82156C15.1631 5.9396 15.33 6.01811 15.5085 6.0487C16.1101 6.15758 16.664 6.44756 17.0962 6.87986C17.5285 7.31215 17.8184 7.86614 17.9271 8.4677C18.0359 9.06925 17.9584 9.68968 17.7049 10.246C17.4515 10.8023 17.0342 11.2679 16.5089 11.5805C16.278 11.7132 16.1094 11.9321 16.04 12.1891C15.9705 12.4461 16.0061 12.7202 16.1387 12.951C16.2714 13.1818 16.4903 13.3505 16.7473 13.4199C17.0043 13.4893 17.2784 13.4537 17.5092 13.3211C18.2676 12.8809 18.897 12.2489 19.3342 11.4887C19.7714 10.7285 20.001 9.86664 20 8.98967C19.997 7.91345 19.6469 6.86691 19.0017 6.00549C18.3565 5.14408 17.4507 4.51374 16.4188 4.2081Z" fill="white"/>
</svg>
