<svg width="20" height="21" viewBox="0 0 20 21" fill="none" xmlns="http://www.w3.org/2000/svg">
<path d="M3.5 15.5008H2V4.50079H9.8L9 5.29079C8.8117 5.47777 8.70538 5.73189 8.70444 5.99726C8.70351 6.26262 8.80802 6.51749 8.995 6.70579C9.18198 6.8941 9.4361 7.00041 9.70146 7.00135C9.96683 7.00229 10.2217 6.89777 10.41 6.71079L12.91 4.21079C13.0037 4.11783 13.0781 4.00723 13.1289 3.88537C13.1797 3.76351 13.2058 3.6328 13.2058 3.50079C13.2058 3.36878 13.1797 3.23808 13.1289 3.11622C13.0781 2.99436 13.0037 2.88376 12.91 2.79079L10.41 0.290793C10.2226 0.104542 9.96919 0 9.705 0C9.44081 0 9.18736 0.104542 9 0.290793C8.90627 0.383756 8.83188 0.494357 8.78111 0.616216C8.73034 0.738075 8.7042 0.868781 8.7042 1.00079C8.7042 1.1328 8.73034 1.26351 8.78111 1.38537C8.83188 1.50723 8.90627 1.61783 9 1.71079L9.79 2.50079H1C0.734784 2.50079 0.48043 2.60615 0.292893 2.79369C0.105357 2.98122 0 3.23558 0 3.50079V16.5008C0 16.766 0.105357 17.0204 0.292893 17.2079C0.48043 17.3954 0.734784 17.5008 1 17.5008H3.5C3.76522 17.5008 4.01957 17.3954 4.20711 17.2079C4.39464 17.0204 4.5 16.766 4.5 16.5008C4.5 16.2356 4.39464 15.9812 4.20711 15.7937C4.01957 15.6061 3.76522 15.5008 3.5 15.5008ZM19 2.50079H16.5C16.2348 2.50079 15.9804 2.60615 15.7929 2.79369C15.6054 2.98122 15.5 3.23558 15.5 3.50079C15.5 3.76601 15.6054 4.02036 15.7929 4.2079C15.9804 4.39544 16.2348 4.50079 16.5 4.50079H18V15.5008H9.63L10.42 14.7108C10.5137 14.6178 10.5881 14.5072 10.6389 14.3854C10.6897 14.2635 10.7158 14.1328 10.7158 14.0008C10.7158 13.8688 10.6897 13.7381 10.6389 13.6162C10.5881 13.4944 10.5137 13.3838 10.42 13.2908C10.2326 13.1045 9.97919 13 9.715 13C9.45081 13 9.19736 13.1045 9.01 13.2908L6.51 15.7908C6.41627 15.8838 6.34188 15.9944 6.29111 16.1162C6.24034 16.2381 6.2142 16.3688 6.2142 16.5008C6.2142 16.6328 6.24034 16.7635 6.29111 16.8854C6.34188 17.0072 6.41627 17.1178 6.51 17.2108L9.01 19.7108C9.1983 19.8978 9.45317 20.0023 9.71854 20.0014C9.9839 20.0004 10.238 19.8941 10.425 19.7058C10.612 19.5175 10.7165 19.2626 10.7156 18.9973C10.7146 18.7319 10.6083 18.4778 10.42 18.2908L9.63 17.5008H19C19.2652 17.5008 19.5196 17.3954 19.7071 17.2079C19.8946 17.0204 20 16.766 20 16.5008V3.50079C20 3.23558 19.8946 2.98122 19.7071 2.79369C19.5196 2.60615 19.2652 2.50079 19 2.50079Z" fill="white"/>
</svg>
